name C:\Users\u0101727\Documents\MyRepositories\paper-ad\predictivesimulations_2d/Results/PredSim_2D/IK_c5.mot
datacolumns 11
datarows 34
range 0.00000000 0.31659393
endheader
time	pelvis_tilt	pelvis_tx	pelvis_ty	hip_flexion_l	hip_flexion_r	knee_angle_l	knee_angle_r	ankle_angle_l	ankle_angle_r	lumbar_extension	
          0.00000000	        -15.16441016	          0.00000000	          0.88360418	          0.98635178	         38.09795574	        -16.23085110	        -10.56498859	          5.77183904	         13.84090119	          9.67529592	
          0.00959376	        -15.12635556	          0.01477816	          0.88281730	          0.89253975	         37.61341080	        -17.72442949	         -9.95982218	          4.57164267	         13.39278224	          9.77219038	
          0.01918751	        -15.07725615	          0.02981979	          0.88197946	          0.87747899	         37.03369672	        -19.38552638	         -9.64070709	          3.26764137	         12.89255619	          9.88213025	
          0.02878127	        -15.01966825	          0.04510784	          0.88111407	          0.94840711	         36.29073499	        -21.21102633	         -9.72821241	          1.83984137	         12.33814939	         10.00908814	
          0.03837502	        -14.96180392	          0.06045644	          0.88034808	          1.10995301	         35.42768404	        -23.18234559	        -10.04266018	          0.37357880	         11.76889718	         10.14363599	
          0.04796878	        -14.91463929	          0.07552482	          0.87991110	          1.38897096	         34.56974601	        -25.20702801	        -10.32309180	         -0.90963092	         11.21874443	         10.26253018	
          0.05756253	        -14.88673572	          0.09006587	          0.88006492	          1.81372502	         33.75416019	        -27.14484978	        -10.58163266	         -1.91176699	         10.68757097	         10.35185559	
          0.06715629	        -14.88043309	          0.10401665	          0.88096534	          2.38011291	         32.98337457	        -28.93318687	        -10.81314787	         -2.66220071	         10.19003525	         10.41047218	
          0.07675004	        -14.89103950	          0.11746043	          0.88257146	          3.07135216	         32.23885472	        -30.59276473	        -11.00564136	         -3.17037631	          9.74243101	         10.44452155	
          0.08634380	        -14.91196270	          0.13052145	          0.88467342	          3.86690110	         31.49947777	        -32.15269384	        -11.15018134	         -3.44904042	          9.35624460	         10.46102804	
          0.09593756	        -14.93783943	          0.14330720	          0.88703859	          4.75120463	         30.74843400	        -33.63054856	        -11.23994119	         -3.51375518	          9.03774709	         10.46530441	
          0.10553131	        -14.96523168	          0.15589190	          0.88948423	          5.71223730	         29.97627834	        -35.03479018	        -11.27300362	         -3.37955338	          8.78855464	         10.46054419	
          0.11512507	        -14.99224568	          0.16832253	          0.89188672	          6.74099275	         29.17848628	        -36.36673722	        -11.24980720	         -3.06273560	          8.60762815	         10.44850381	
          0.12471882	        -15.01792007	          0.18062915	          0.89416686	          7.83007202	         28.35351089	        -37.62328894	        -11.17235449	         -2.58003305	          8.49232717	         10.43019307	
          0.13431258	        -15.04176505	          0.19283206	          0.89627425	          8.97329863	         27.50172598	        -38.79957050	        -11.04412507	         -1.94831502	          8.43890661	         10.40622680	
          0.14390633	        -15.06351366	          0.20494634	          0.89817647	         10.16512271	         26.62478246	        -39.88949712	        -10.86996951	         -1.18453215	          8.44281668	         10.37705685	
          0.15350009	        -15.08299393	          0.21698439	          0.89985257	         11.40019203	         25.72527660	        -40.88629144	        -10.65591858	         -0.30585174	          8.49891193	         10.34308965	
          0.16309385	        -15.10008147	          0.22895712	          0.90128989	         12.67308186	         24.80651347	        -41.78279040	        -10.40899727	          0.67033462	          8.60160496	         10.30474213	
          0.17268760	        -15.11468783	          0.24087403	          0.90248357	         13.97843016	         23.87247302	        -42.57141046	        -10.13722464	          1.72646168	          8.74508213	         10.26240525	
          0.18228136	        -15.12679885	          0.25274272	          0.90343689	         15.31122554	         22.92758401	        -43.24397627	         -9.84839017	          2.84486173	          8.92347212	         10.21639906	
          0.19187511	        -15.13653922	          0.26457051	          0.90416046	         16.66547465	         21.97573476	        -43.79296782	         -9.54954535	          4.00772185	          9.13027360	         10.16720196	
          0.20146887	        -15.14407131	          0.27636363	          0.90467128	         18.03536280	         21.02110795	        -44.21069698	         -9.24826753	          5.19719615	          9.35780607	         10.11524067	
          0.21106262	        -15.14953635	          0.28812760	          0.90499011	         19.41540537	         20.06827717	        -44.48934350	         -8.95240457	          6.39546756	          9.59803142	         10.06085664	
          0.22065638	        -15.15308025	          0.29986842	          0.90513838	         20.79909735	         19.12204550	        -44.62196940	         -8.67034534	          7.58474391	          9.84301034	         10.00443023	
          0.23025013	        -15.15492336	          0.31159313	          0.90513638	         22.17954020	         18.18565226	        -44.60292358	         -8.40770386	          8.74735856	         10.08541982	          9.94649219	
          0.23984389	        -15.15538262	          0.32331007	          0.90500220	         23.54983312	         17.25990499	        -44.42817814	         -8.16576608	          9.86594563	         10.31862342	          9.88778589	
          0.24943765	        -15.15473990	          0.33502802	          0.90475134	         24.90207386	         16.34621336	        -44.09575704	         -7.94734291	         10.92376712	         10.53583347	          9.82904734	
          0.25903140	        -15.15323963	          0.34675517	          0.90439693	         26.22831919	         15.44672705	        -43.60466745	         -7.75603556	         11.90538296	         10.73097671	          9.77089451	
          0.26862516	        -15.15112326	          0.35850057	          0.90394964	         27.51976230	         14.56301549	        -42.95793775	         -7.59485712	         12.79739409	         10.89942346	          9.71406207	
          0.27821891	        -15.14864896	          0.37027272	          0.90341855	         28.76835316	         13.69601709	        -42.16014412	         -7.46588023	         13.58957116	         11.03821103	          9.65924482	
          0.28781267	        -15.14608058	          0.38207819	          0.90281173	         29.96793503	         12.84659912	        -41.21558443	         -7.37017423	         14.27583475	         11.14620629	          9.60692458	
          0.29740642	        -15.14365674	          0.39392328	          0.90213570	         31.11279748	         12.01545741	        -40.13098229	         -7.30938513	         14.85458597	         11.22413742	          9.55754401	
          0.30700018	        -15.14159894	          0.40581238	          0.90139578	         32.19997695	         11.20291527	        -38.91185812	         -7.28443666	         15.32865253	         11.27481729	          9.51129446	
          0.31659393	        -15.14011870	          0.41774908	          0.90059574	         33.22812298	         10.40886516	        -37.56319451	         -7.29573021	         15.70431176	         11.30270229	          9.46824017	
